/* XPM */
static char *_685356763348[] = {
/* columns rows colors chars-per-pixel */
"53 64 219 2 ",
"   c #860000",
".  c #9A0000",
"X  c #A72D00",
"o  c #BF5F11",
"O  c #AB6C3B",
"+  c #B5623A",
"@  c #BC7A3A",
"#  c #E67A00",
"$  c #C75F30",
"%  c #D77B34",
"&  c #E37C2E",
"*  c #B66E4A",
"=  c #BA6746",
"-  c #AD704A",
";  c #B36B56",
":  c #B87C58",
">  c #AA6643",
",  c #B36861",
"<  c #AF7160",
"1  c #BB7762",
"2  c #B97B60",
"3  c #BC7776",
"4  c #C26B44",
"5  c #C16F4F",
"6  c #C17246",
"7  c #DB795B",
"8  c #C06866",
"9  c #C27678",
"0  c #C39600",
"q  c #DD9500",
"w  c #EB8A00",
"e  c #E98500",
"r  c #F58B00",
"t  c #EC9200",
"y  c #E79700",
"u  c #F19703",
"i  c #FA9F1F",
"p  c #D5A210",
"a  c #E9A500",
"s  c #F9A804",
"d  c #EEAB15",
"f  c #FDA31E",
"g  c #FAA618",
"h  c #F5B511",
"j  c #CB8330",
"k  c #D88133",
"l  c #FF952D",
"z  c #E08935",
"x  c #FF9433",
"c  c #FFAB26",
"v  c #FFA62C",
"b  c #FDA727",
"n  c #FCB325",
"m  c #F9C918",
"M  c #FBD31E",
"N  c #F4ED00",
"B  c #FBE505",
"V  c #FCF50E",
"C  c #EFE816",
"Z  c #F7E912",
"A  c #F8E418",
"S  c #FEC22B",
"D  c #FACB24",
"F  c #FBDC29",
"G  c #F1EC25",
"H  c #FDEC27",
"J  c #F3EB34",
"K  c #8E8748",
"L  c #B88449",
"P  c #BB8767",
"I  c #BC8373",
"U  c #BB8970",
"Y  c #A09F79",
"T  c #B99D7D",
"R  c #D98F4A",
"E  c #D29046",
"W  c #C98D5D",
"Q  c #C7885B",
"!  c #CC8349",
"~  c #E78946",
"^  c #EB8050",
"/  c #CAA950",
"(  c #C68765",
")  c #DC896D",
"_  c #C3976A",
"`  c #CA9A6C",
"'  c #D89567",
"]  c #C68975",
"[  c #C59B77",
"{  c #CA9976",
"}  c #D2967D",
"|  c #FF956F",
" . c #F08C73",
".. c #DBA86D",
"X. c #D9BE61",
"o. c #C8A479",
"O. c #D8A47D",
"+. c #E9A778",
"@. c #E2B276",
"#. c #F7E949",
"$. c #FFE051",
"%. c #FAF050",
"&. c #FCEE67",
"*. c #EEF175",
"=. c #F4F979",
"-. c #FAE973",
";. c #B57984",
":. c #CE7F82",
">. c #A09A9A",
",. c #BE9792",
"<. c #A9AD81",
"1. c #BEA496",
"2. c #BCA684",
"3. c #BFAEA7",
"4. c #BAB8BA",
"5. c #DC878F",
"6. c #CD9689",
"7. c #C69881",
"8. c #CC9196",
"9. c #C7898E",
"0. c #FF9B82",
"q. c #E2969A",
"w. c #D7A583",
"e. c #DABA8B",
"r. c #CDAC93",
"t. c #CAA99C",
"y. c #C3B39B",
"u. c #CAB99D",
"i. c #D4BD96",
"p. c #DEBC92",
"a. c #D9B49B",
"s. c #DFB394",
"d. c #CCA890",
"f. c #E3AF89",
"g. c #E0AD83",
"h. c #E9B78A",
"j. c #EEBB9B",
"k. c #E4B592",
"l. c #E2AB96",
"z. c #C6AFAF",
"x. c #DFB1B5",
"c. c #D7ADA4",
"v. c #E5AEA8",
"b. c #CFC09B",
"n. c #D3C09D",
"m. c #D8C19E",
"M. c #FFC681",
"N. c #EDCB96",
"B. c #E6C69C",
"V. c #F0C69F",
"C. c #EADB8C",
"Z. c #FAF289",
"A. c #FAF79A",
"S. c #D8C9A6",
"D. c #CAD4A0",
"F. c #DED4A7",
"G. c #DDD6AC",
"H. c #D6C3B5",
"J. c #DCD5B9",
"K. c #E3C4A2",
"L. c #E5CAAD",
"P. c #F2CDA3",
"I. c #EFDDAE",
"U. c #E7D6AA",
"Y. c #EBDCB3",
"T. c #E3D7BD",
"R. c #F2D6B3",
"E. c #F2DDB1",
"W. c #FFDDB2",
"Q. c #FCD3B9",
"!. c #F4DBB9",
"~. c #FFDABE",
"^. c #F9D6AA",
"/. c #F5E4AB",
"(. c #EBE5BC",
"). c #FCE5BA",
"_. c #FFEDBB",
"`. c #F9E5B5",
"'. c #FFF1BF",
"]. c #F7F5B5",
"[. c #CDCBC0",
"{. c #D9CDC6",
"}. c #D5D5CB",
"|. c #DCD0C7",
" X c #D4CFD4",
".X c #EADEC7",
"XX c #F0DFC3",
"oX c #E9E5C7",
"OX c #F4E5C3",
"+X c #FFE6C1",
"@X c #F4EDC4",
"#X c #FEEEC2",
"$X c #F8ECCC",
"%X c #FFF2C5",
"&X c #FCF2CC",
"*X c #FEFACC",
"=X c #ECEAD8",
"-X c #F9EDD7",
";X c #FBF5D4",
":X c #FEFAD3",
">X c #FCF6DB",
",X c #F5FDDE",
"<X c #FAFADD",
"1X c #F6F6D7",
"2X c #F3EAE3",
"3X c #EDFCEE",
"4X c #FEF6E2",
"5X c #F4FCE3",
"6X c #FCFCE4",
"7X c #F9F5E9",
"8X c #F5FBEE",
"9X c #FBFDED",
"0X c #F6F6E5",
"qX c #F7FCF5",
"wX c #FBFDF2",
"eX c #FEFEFD",
"rX c #F7F7F0",
"tX c #E7E4E2",
"yX c None",
/* pixels */
"yXyXyXyXyXyXyXyXyXyXyXyXyXyXyXyXyXyXyXyXyXyXyXyXyXyXyXyXyXyXyXyXyXyXyXyXyXyXyXyXyXyXyXyXyXyXyXyXyXyXyXyXyX",
"yXyXyXyXyXyXyXyXyXyXyXyXyXyXyXyXyXyXyXyXyXyXyXyXyXyXyXyXyXyXyXyXyXyXyXyXyXyXyXyXyXyXyXyXyXyXyXyXyXyXyXyXyX",
"yXyXyXyXyXyXyXyXyXyXyXyXyXyXyXyXyXyXyXyXyXyXyXyXyXyXyXyXyXyXyXyXyXyXyXyXyXyXyXyXyXyXyXyXyXyXyXyXyXyXyXyXyX",
"yXyXyXyXyXyXyXyXyXyXyXyXyXyXyXyXyXyXyXyXyXyXyXyXyXyXyXyXyXyXyXyXyXyXyXyXyXyXyXyXyXyXyXyXyXyXyXyXyXyXyXyXyX",
"yXyXyXyXyXyXyXyXyXyXyXyXyXyXyXyXyXyXyXyXyXyXyXyXyXyXyXyXyXyXyXyXyXyXyXyXyXyXyXyXyXyXyXyXyXyXyXyXyXyXyXyXyX",
"yXyXyXyXyXyXyXyXyXyXyXyXyXyXyXyXyXyXyXyXyXyXyXyXyXyXyXyXyXyXyXyXyXyXyXyXyXyXyXyXyXyXyXyXyXyXyXyXyXyXyXyXyX",
"yXyXyXyXyXyXyXyXyXyXyXyXyXyXyXyXyXyXyXyXyXyXyXyXyXyXyXyXyXyXyXyXyXyXyXyXyXyXyXyXyXyXyXyXyXyXyXyXyXyXyXyXyX",
"yXyXyXyXyXyXyXyXyXyXyXyXyXyXyXyXyXyXyXyXyXyXyXyXyXyXyXyXyXyXyXyXyXyXyXyXyXyXyXyXyXyXyXyXyXyXyXyXyXyXyXyXyX",
"yXyXyXyXyXyXyXyXyXyXyXyXyXyXyXyXyXyXyXyXyXyXyXyXyXyXyXyXyXyXyXyXyXyXyXyXyXyXyXyXyXyXyXyXyXyXyXyXyXyXyXyXyX",
"yXyXyXyXyXyXyXyXyXyXyXyXyXyXyXyXyXyXyXyXyXyXyXyXyXyXyXyXyXyXyXyXyXyXyXyXyXyXyXyXyXyXyXyXyXyXyXyXyXyXyXyXyX",
"yXyXyXyXyXyXyXyXyXyXyXyXyXyXyXyXyXyXyXyXyXyXyXyXyXyXyXyXyXyXyXyXyXyXyXyXyXyXyXyXyXyXyXyXyXyXyXyXyXyXyXyXyX",
"yXyXyXyXyXyXyXyXyXyXyXyXyXyXyXyXyXyXyXyXyXyXyXyXyXyXyXyXyXyXyXyXyXyXyXyXyXyXyXyXyXyXyXyXyXyXyXyXyXyXyXyXyX",
"yXyXyXyXyXyXyXyXyXyXyXyXyXyXyXyXyXyXyXyXyXyXyXyXyXyXyXyXyXyXyXyXyXyXyXyXyXyXyXyXyXyXyXyXyXyXyXyXyXyXyXyXyX",
"yXyXyXyXyXyXyXyXyXyXyXyXyXyXyXyXyXyXyXyXyXyXyXyXyXyXyXyXyXyXyXyXyXyXyXyXyXyXyXyXyXyXyXyXyXyXyXyXyXyXyXyXyX",
"yXyXyXyXyXyXyXyXyXyXyXyXyXyXyXyXyXyXyXyXyXyXyXyXyXyXyXyXyXyXyXyXyXyXyXyXyXyXyXyXyXyXyXyXyXyXyXyXyXyXyXyXyX",
"yXyXyXyXyXyXyXyXyXyXyXyXyXyXyXyXyXyXyXyXyXyXyXyXyXyX/ yXyXyXyXyXyXyXyXyXyXyXyXyXyXyXyXyXyXyXyXyXyXyXyXyXyX",
"yXyXyXyXyXyXyXyXyXyXyXyXyXyXyXyXyXyXyXyXyXyXyXyXyXo.# 6.yXyXyXyXyXyXyXyXyXyXyXyXyXyXyXyXyXyXyXyXyXyXyXyXyX",
"yXyXyXyXyXyXyXyXyXyXyXyXyXyXyXyXyXyXyXyXyXyXyX2X6.w s ) 9.W yXyXyXyXyXyXyXyXyXyXyXyXyXyXyXyXyXyXyXyXyXyXyX",
"yXyXyXyXyXyXyXyXyXyXyXyXyXyXyXyXyXyXyXyXyXyXyX6.w v f g y ~ >.yXyXyXyXyXyXyXyXyXyXyXyXyXyXyXyXyXyXyXyXyXyX",
"yXyXyXyXyXyXyXyXyXyXyXyXyXyXyXyXyXyXyXyXyXyX{.7 s d c g n & z.yXyXyXyXyXyXyXyXyXyXyXyXyXyXyXyXyXyXyXyXyXyX",
"yXyXyXyXyXyXyXyXyXyXyXyXyXyXyXyXyXyXyXyXyXyX,.r g b M h i s ) 4.yXyXyXyXyXyXyXyXyXyXyXyXyXyXyXyXyXyXyXyXyX",
"yXyXyXyXyXyXyXyXyXyXyXyXyXyXyXyXyXyXyXyXyXyX8.t v h A m g c $  XyXyXyXyXyXyXyXyXyXyXyXyXyXyXyXyXyXyXyXyXyX",
"yXyXyXyXyXyXyXyXyXyXyXyXyXyXyXyXyXyXyXyXyXH.k g n C N Z n f q c.yXyXyXyXyXyXyXyXyXyXyXyXyXyXyXyXyXyXyXyXyX",
"yXyXyXyXyXyXyXyXyXyXyXyXyXyXyXyXyXyXyXyXyX1.e v m V J J B c d + tXyXyXyXyXyXyXyXyXyXyXyXyXyXyXyXyXyXyXyXyX",
"yXyXyXyXyXyXyXyXyXyXyXyXyXyXyXyXyXyXyXyXyXt.e S C Z *.#.B D l p 6XyXyXyXyXyXyXyXyXyXyXyXyXyXyXyXyXyXyXyXyX",
"yXyXyXyXyXyXyXyXyXyXyXyXyXyXyXyXyXyXyXyXyX3 w S N #.Z.&.N F x 0 yXyXyXyXyXyXyXyXyXyXyXyXyXyXyXyXyXyXyXyXyX",
"yXyXyXyXyXyXyXyXyXyXyXyXyXyXyXyXyXyXyXyXyXyX' s H -.A.Z.G n k b.yXyXyXyXyXyXyXyXyXyXyXyXyXyXyXyXyXyXyXyXyX",
"yXyXyXyXyXyXyXyXyXyXyXyXyXyXyXyXyXyXyXyXyXyX;.a M *.A.%.H u @ [.yXyXyXyXyXyXyXyXyXyXyXyXyXyXyXyXyXyXyXyXyX",
"yXyXyXyXyXyXyXyXyXyXyXyXyXyXyXyXyXyXyXD.T [ L.( # D =.$.t j j.r.Y K yXyXyXyXyXyXyXyXyXyXyXyXyXyXyXyXyXyXyX",
"yXyXyXyXyXyXyXyXyXyXyXyXyXyXyXyXyXyXe.(.OX/.&XL., % X.E 8 r.;X_.OX!.<.yXyXyXyXyXyXyXyXyXyXyXyXyXyXyXyXyXyX",
"yXyXyXyXyXyXyXyXyXyXyXyXyXyXyXyXyX/.Y.m.+XQ.^.^.~.p.. ( Q.).l.] /.(.2.C.yXyXyXyXyXyXyXyXyXyXyXyXyXyXyXyXyX",
"yXyXyXyXyXyXyXyXyXyXyXyXyXyXyXyXyX:X:Xo.; U v.] < i.j.R.E.g.[ i.1 ] m.*X].yXyXyXyXyXyXyXyXyXyXyXyXyXyXyXyX",
"yXyXyXyXyXyXyXyXyXyXyXyXyXyXyXyXyX$X9X$XG.F.{ L.U.a.1 2 ; 7.5XwXT.OX<X9X'.yXyXyXyXyXyXyXyXyXyXyXyXyXyXyXyX",
"yXyXyXyXyXyXyXyXyXyXyXyXyXyXyXyXyX*XeX,XwX<XOXwX5XH.(.@XoX>X=X}.wX9XrXwXI.yXyXyXyXyXyXyXyXyXyXyXyXyXyXyXyX",
"yXyXyXyXyXyXyXyXyXyXyXyXyXyXyXyXyXeX7X1XwXrXwX2Xy.I u.>XeX=Xw.( S.0XwX:X` yXyXyXyXyXyXyXyXyXyXyXyXyXyXyXyX",
"yXyXyXyXyXyXyXyXyXyXyXyXyXyXyXyXyXeX6XU.J.wXrX}.( ).O .XeX3.o./.> 1XwX;XT yXyXyXyXyXyXyXyXyXyXyXyXyXyXyXyX",
"yXyXyXyXyXyXyXyXyXyXyXyXyXyXyXyXyXeXoX_ ` T.eXJ.( %XK.{ =X1.w.%Xp.d.4XeXOXyXyXyXyXyXyXyXyXyXyXyXyXyXyXyXyX",
"yXyXyXyXyXyXyXyXyXyXyXyXyXyXyXyXyX6XF.( O.u.eX{.P <X6XP.- w.).;XK.: 6XeXyXyXyXyXyXyXyXyXyXyXyXyXyXyXyXyXyX",
"yXyXyXyXyXyXyXyXyXyXyXyXyXyXyXyXyXyXk.a.,.m.eX|.: >X9X>X`.W.OX*XI.U XX6XyXyXyXyXyXyXyXyXyXyXyXyXyXyXyXyXyX",
"yXyXyXyXyXyXyXyXyXyXyXyXyXyXyXyXyXyX2 `.e.d.-Xt.k.<X9X9X6X6X<X>X*XU.O.yXyXyXyXyXyXyXyXyXyXyXyXyXyXyXyXyXyX",
"yXyXyXyXyXyXyXyXyXyXyXyXyXyXyXyXyXyX] `._.K.I S.;X7XwX9X6XrXwX6X&X*Xh.9 yXyXyXyXyXyXyXyXyXyXyXyXyXyXyXyXyX",
"yXyXyXyXyXyXyXyXyXyXyXyXyXyXyXyXyXyX: ).&X%XP.1X9XwXwXwX9XwXwX6X;X&Xk.yXyXyXyXyXyXyXyXyXyXyXyXyXyXyXyXyXyX",
"yXyXyXyXyXyXyXyXyXyXyXyXyXyXyXyXyXyX* %X&X&X5XeXqX6X9XwX9X9XwX9X;X;Xs.yXyXyXyXyXyXyXyXyXyXyXyXyXyXyXyXyXyX",
"yXyXyXyXyXyXyXyXyXyXyXyXyXyXyXyXyXyX* %X4X9X3X9X9XqXwX9X9XwXwX9X;X&Xj.x.yXyXyXyXyXyXyXyXyXyXyXyXyXyXyXyXyX",
"yXyXyXyXyXyXyXyXyXyXyXyXyXyXyXyXyXyX* %X7XwXwX6X6X8XqX9X9X9XwX9X;X&Xj.v.yXyXyXyXyXyXyXyXyXyXyXyXyXyXyXyXyX",
"yXyXyXyXyXyXyXyXyXyXyXyXyXyXyXyXyXyX* %X<X9XwXqXqX9X9X9X9X9XwX9X;X&Xk.q.yXyXyXyXyXyXyXyXyXyXyXyXyXyXyXyXyX",
"yXyXyXyXyXyXyXyXyXyXyXyXyXyXyXyXyXyX; %X6X9XrXwX9X9XwX9X9X9XwX9X;X&Xf.5.yXyXyXyXyXyXyXyXyXyXyXyXyXyXyXyXyX",
"yXyXyXyXyXyXyXyXyXyXyXyXyXyXyXyXyXyX .%X6X9X9XwX9X9X9X9X9X9XwX6X;X&Xf.:.yXyXyXyXyXyXyXyXyXyXyXyXyXyXyXyXyX",
"yXyXyXyXyXyXyXyXyXyXyXyXyXyXyXyXyXyX0.%X6XwX9X9X9X8XwX9X9X9XwX9X;X&Xf.9 yXyXyXyXyXyXyXyXyXyXyXyXyXyXyXyXyX",
"yXyXyXyXyXyXyXyXyXyXyXyXyXyXyXyXyXyX| %X6X9XqX9X9X9XwX9X9X9XwX9X;X&Xg.9 yXyXyXyXyXyXyXyXyXyXyXyXyXyXyXyXyX",
"yXyXyXyXyXyXyXyXyXyXyXyXyXyXyXyXyXyX7 %X6X9XqXwX9X8X8X9X9X9XwX9X;X;Xg.yXyXyXyXyXyXyXyXyXyXyXyXyXyXyXyXyXyX",
"yXyXyXyXyXyXyXyXyXyXyXyXyXyXyXyXyXyX4 %X6XqX9X9X9X9XwX9X9X9XwX9X;X&Xw.yXyXyXyXyXyXyXyXyXyXyXyXyXyXyXyXyXyX",
"yXyXyXyXyXyXyXyXyXyXyXyXyXyXyXyXyXyX= %X6X9XwXwX9X9X9XwX6X8X9X6X1X&X+.yXyXyXyXyXyXyXyXyXyXyXyXyXyXyXyXyXyX",
"yXyXyXyXyXyXyXyXyXyXyXyXyXyXyXyXyXyX4 %X6X9X9XwXwX9X8X9XwXwX9X6X>X&X+.yXyXyXyXyXyXyXyXyXyXyXyXyXyXyXyXyXyX",
"yXyXyXyXyXyXyXyXyXyXyXyXyXyXyXyXyXyX6 %X9X6X9X9XwX9X6X9XqXeXwX>X*X*X' yXyXyXyXyXyXyXyXyXyXyXyXyXyXyXyXyXyX",
"yXyXyXyXyXyXyXyXyXyXyXyXyXyXyXyXyXyXO ).6X9XwXwXwXwXwX9XwXwX6X-X*X%X+.yXyXyXyXyXyXyXyXyXyXyXyXyXyXyXyXyXyX",
"yXyXyXyXyXyXyXyXyXyXyXyXyXyXyXyXyXyX} &X9XrXwXrX9X9XwXwX6X<X;X;X;X>X`.q yXyXyXyXyXyXyXyXyXyXyXyXyXyXyXyXyX",
"yXyXyXyXyXyXyXyXyXyXyXyXyXyXyXyXyXX OX6X9XwXwX9X9X9X9XwX6X5X<X<X<XeX5X_...yXyXyXyXyXyXyXyXyXyXyXyXyXyXyXyX",
"yXyXyXyXyXyXyXyXyXyXyXyXyXyXyX~ ' h.:X6X9X9XwX9X6X;X1X9XqXwXwX9X<X:X6X6X*XM.yXyXyXyXyXyXyXyXyXyXyXyXyXyXyX",
"yXyXyXyXyXyXyXyXyXyXyXyXyXyXyXyX+ W N.E.6XeX9X<X+X} e.;X4XeXwX6XR.P.E.N.yXyXyXyXyXyXyXyXyXyXyXyXyXyXyXyXyX",
"yXyXyXyXyXyXyXyXyXyXyXyXyXyXyXyXyXyX  Q /.*X].h.! yXyXL @.9X:XV.yXyXyXyXyXyXyXyXyXyXyXyXyXyXyXyXyXyXyXyXyX",
"yXyXyXyXyXyXyXyXyXyXyXyXyXyXyXyXyXyXyXyXo ` R yXyXyXyXyXyXyXyXyXyXyXyXyXyXyXyXyXyXyXyXyXyXyXyXyXyXyXyXyXyX",
"yXyXyXyXyXyXyXyXyXyXyXyXyXyXyXyXyXyXyXyXyXyXyXyXyXyXyXyXyXyXyXyXyXyXyXyXyXyXyXyXyXyXyXyXyXyXyXyXyXyXyXyXyX",
"yXyXyXyXyXyXyXyXyXyXyXyXyXyXyXyXyXyXyXyXyXyXyXyXyXyXyXyXyXyXyXyXyXyXyXyXyXyXyXyXyXyXyXyXyXyXyXyXyXyXyXyXyX"
};
