/* XPM */
static char *_685353692957[] = {
/* columns rows colors chars-per-pixel */
"44 64 185 2 ",
"   c #060606",
".  c #0B0B0B",
"X  c gray9",
"o  c #1B1B1B",
"O  c #1E1E1E",
"+  c #252525",
"@  c #282828",
"#  c gray17",
"$  c #393939",
"%  c #3C3C3C",
"&  c gray24",
"*  c #484848",
"=  c gray29",
"-  c #4C4C4C",
";  c gray30",
":  c #505050",
">  c #5F5F5F",
",  c gray48",
"<  c #848484",
"1  c #868686",
"2  c gray55",
"3  c gray57",
"4  c #939393",
"5  c gray58",
"6  c #959595",
"7  c #9F9F9F",
"8  c gray63",
"9  c #A2A2A2",
"0  c gray66",
"q  c #A9A9A9",
"w  c #B2B2B2",
"e  c #BAB9B9",
"r  c gray73",
"t  c #BFBFB9",
"y  c #BEBCBC",
"u  c gray75",
"i  c #C3BEBF",
"p  c #C5C1BE",
"a  c #C0C0C0",
"s  c #C2C1C1",
"d  c gray76",
"f  c #C3C3C3",
"g  c #C5C1C1",
"h  c #C6C2C1",
"j  c #C5C4C3",
"k  c #C5C7C3",
"l  c gray77",
"z  c #C5C5C5",
"x  c #C7C5C5",
"c  c #C6C6C6",
"v  c gray78",
"b  c #C9C7C3",
"n  c #C8C6C5",
"m  c #C8C7C7",
"M  c #C9C7C7",
"N  c #C8C8C8",
"B  c gray79",
"V  c #CAC9C8",
"C  c #CACACA",
"Z  c #CBCBCB",
"A  c #CCCBCB",
"S  c #CECCCB",
"D  c #CFCFCA",
"F  c gray80",
"G  c #CDCDCD",
"H  c #CFCCCC",
"J  c #CFCDCE",
"K  c #CECECE",
"L  c #CFCECE",
"P  c gray81",
"I  c #D0CCCA",
"U  c #D1CDCD",
"Y  c #D1CECE",
"T  c #D0CECF",
"R  c #D0CFCF",
"E  c #D2CECF",
"W  c #D3CECF",
"Q  c #D3CFCF",
"!  c gray82",
"~  c #D3D0D0",
"^  c #D2D1D1",
"/  c #D2D2D2",
"(  c #D3D2D2",
")  c LightGray",
"_  c #D4D2D1",
"`  c #D7D3D1",
"'  c #D4D2D2",
"]  c #D4D2D3",
"[  c #D4D3D3",
"{  c #D7D2D2",
"}  c #D5D5D1",
"|  c gray83",
" . c #D5D4D4",
".. c #D5D5D5",
"X. c #D7D5D4",
"o. c #D6D4D5",
"O. c #D6D5D5",
"+. c gray84",
"@. c #D7D7D7",
"#. c #D8D3D6",
"$. c #D8D8D3",
"%. c #DBD7D8",
"&. c #D8D8D8",
"*. c gray85",
"=. c #DADADA",
"-. c gray86",
";. c #DDD9D9",
":. c #DCDBDA",
">. c #DEDADB",
",. c gainsboro",
"<. c #DDDDDD",
"1. c #DEDDDD",
"2. c gray87",
"3. c #DFDFDF",
"4. c #E1DADB",
"5. c #E2DDDB",
"6. c #E0DADF",
"7. c #E2DDDC",
"8. c #E3DDDD",
"9. c #E1DEDC",
"0. c #E1DCDF",
"q. c #E3DCDE",
"w. c #E3DFDE",
"e. c #E5DEDF",
"r. c #E1E1DC",
"t. c #E6E5DF",
"y. c gray88",
"u. c #E1E1E1",
"i. c #E2E2E2",
"p. c gray89",
"a. c #E4E1E2",
"s. c #E7E2E4",
"d. c #E5E3E7",
"f. c #E4E4E4",
"g. c gray90",
"h. c #E7E4E5",
"j. c #E6E6E6",
"k. c #E7E7E7",
"l. c #E8E1E2",
"z. c #E9E2E3",
"x. c #EBE7E4",
"c. c #E9E5E8",
"v. c #EDE6E8",
"b. c gray91",
"n. c #E9E9E9",
"m. c #EBE9E9",
"M. c #EAEAEA",
"N. c gray92",
"B. c #EFE9EA",
"V. c #ECECEC",
"C. c gray93",
"Z. c #EFEDEC",
"A. c #EEEEEE",
"S. c #EFEFEF",
"D. c #F0E6E5",
"F. c #F0E7E8",
"G. c #F0EAEA",
"H. c #F1ECEC",
"J. c #F0EDEF",
"K. c #F4ECED",
"L. c #F6EEEF",
"P. c #F7EFEF",
"I. c #F4F0EE",
"U. c gray94",
"Y. c #F1F1F1",
"T. c gray95",
"R. c #F3F3F3",
"E. c #F4F4F4",
"W. c gray96",
"Q. c #F6F6F6",
"!. c gray97",
"~. c #F8F0F0",
"^. c #F9F2F5",
"/. c #F9F5F7",
"(. c #FCF4F5",
"). c #FFF6F4",
"_. c #FFF6FB",
"`. c #F8F8F8",
"'. c #F9F9F9",
"]. c gray98",
"[. c gray99",
"{. c #FDFDFD",
"}. c #FEFEFE",
"|. c white",
" X c None",
/* pixels */
" X X X X X X X X X X X X X X X X X X X X X X X X X X X X X X X X X X X X X X X X X X X X",
" X X X X X X X X X X X X X X X X X X X X X X X X X X X X X X X X X X X X X X X X X X X X",
" X X X X X X X X X X X X X X X X X X X X X X X X X X X X X X X X X X X X X X X X X X X X",
" X X X X X X X X X X X X X X X X X X X X X X X X X X X X X X X X X X X X X X X X X X X X",
" X X X X X X X X X X X X X X X X X X X X X X X X X X X X X X X X X X X X X X X X X X X X",
" X X X X X X X X X X X X X X X X X X X Xs | g.3.B Y  X X X X X X X X X X X X X X X X X X",
" X X X X X X X X X X X X X X X X X X X@.!.y.| U.Y.Y.y.W  X X X X X X X X X X X X X X X X",
" X X X X X X X X X X X X X X X X X XF R.u.N.C.i.<.U.,.|.E  X X X X X X X X X X X X X X X",
" X X X X X X X X X X X X X X X X X<.T.<.Y.,.g.C.M.j.M.y.j.H  X X X X X X X X X X X X X X",
" X X X X X X X X X X X X X X X Xk k.3.y.A.f.S.u.b.n.f.k.n.i. X X X X X X X X X X X X X X",
" X X X X X X X X X X X X X X X XG n.!.R.3.*.j.y.<.k.<.S.2.k.y  X X X X X X X X X X X X X",
" X X X X X X X X X X X X X X Xt M.u.f.g.V.T.j.g.Y.U.,.n.p.E.c  X X X X X X X X X X X X X",
" X X X X X X X X X X X X X X XX.].u.k.p.3.M.j.j.,.G V.Q.<.T.k.x  X X X X X X X X X X X X",
" X X X X X X X X X X X X X X Xk.*.M.S.7 > 9 V.j.q = 6 M.2.,.U.f  X X X X X X X X X X X X",
" X X X X X X X X X X X X X Xp n.g.S.q # . 1 Q.n.0   O q R.n.V.Z  X X X X X X X X X X X X",
" X X X X X X X X X X X X X XV y.f.j.1 $ ; 4 -.A.8 - % 2 b.p.C.+. X X X X X X X X X X X X",
" X X X X X X X X X X X X X XG C.f.F : * o K f.u.F & @ < <.E.<.V.}  X X X X X X X X X X X",
" X X X X X X X X X X X X X X+.g.j.j., X 5 y.V.j.].2 + 3 C.@.C.b._  X X X X X X X X X X X",
" X X X X X X X X X X X X X` g.y.i.N.n.7 U.G b.R.*.A.w n.|.G W.A.^  X X X X X X X X X X X",
" X X X X X X X X X X X X XQ R.y.M.y.V.|.N.b.u.<.k.Q.U.M.N.k.k.C.O. X X X X X X X X X X X",
" X X X X X X X X X X X X XL W.i.i.!./ b.z }.g.N.'.C 2.u.u.n.&.S.[  X X X X X X X X X X X",
" X X X X X X X X X X X X X) C.p.3.A.W.<.K Z ,.g.K G n.'.j.2.k.k.B  X X X X X X X X X X X",
" X X X X X X X X X X X X Xf.g.j.Y.C Y.g.C.u +.r ) j.-.=.<.k.W.*./  X X X X X X X X X X X",
" X X X X X X X X X X X X XY.i.n.b.k.V.=.V.k.S.g.g.V.b.p.V.n.2.N.=. X X X X X X X X X X X",
" X X X X X X X X X X X X5.S.n.g.j.j.j.j.j.j.j.j.j.j.j.j.j.j.j.j.j.z. X X X X X X X X X X",
" X X X X X X X X X X Xw.S.U.p.3.j.j.j.j.j.j.j.j.j.j.j.j.j.j.j.j.k.E.'  X X X X X X X X X",
" X X X X X X X X XI.y.V.n.y.j.g.j.j.j.j.j.j.j.j.j.j.j.j.j.j.j.j.b.g.j.2.F. X X X X X X X",
" X X X X X X XI.2.E.W.,.y.b.b.j.j.j.j.j.j.j.j.j.j.j.j.j.j.j.j.j.n.3.u.'.C.{  X X X X X X",
" X X X X X X:.|.u.i.=.i.n.k.i.k.j.j.j.j.j.j.j.j.j.j.j.j.j.j.j.j.k.Y.k.3.k.].=.D. X X X X",
" X X X X XT.W.P V.N.N.W.@.3.C.p.j.j.j.j.j.j.j.j.j.j.j.j.j.j.j.j.u.f.f.C.p.-.V.Y. X X X X",
" X X X XM.y.2.{.g.n.<.U.y.A.U.3.j.j.j.j.j.j.j.j.j.j.j.j.j.j.j.j.g.N.y.j.N.p.j.j.!. X X X",
" X X XZ.[.P {.| M.N 8.d C.M...S.j.j.j.j.j.j.j.j.j.j.j.j.j.j.j.j.T.B I a A.M.u.p.f.R  X X",
" X X Xy.N.A.) `.e  X X=.N.i.,.M.j.j.j.j.j.j.j.j.j.j.j.j.j.j.j.j.V.u. X Xx.|.*.<.3.m  X X",
" X X Xm.V.1.|.q. X X Xf.y.C.A.A.j.j.j.j.j.j.j.j.j.j.j.j.j.j.j.j.k.V.9. X X;.Q.E.|.%. X X",
" X X X XM.n.l. X X X Xj.p.g.<.f.j.j.j.j.j.j.j.j.j.j.j.j.j.j.j.j.k.k.V  X X X| V.%. X X X",
" X X X X X X X X X X Xy.C.g.<.k.j.j.j.j.j.j.j.j.j.j.j.j.j.j.j.j.n.M.S  X X X X X X X X X",
" X X X X X X X X X X7.n.b.M.C.y.j.j.j.j.j.j.j.j.j.j.j.j.j.j.j.j.2.'.n  X X X X X X X X X",
" X X X X X X X X X Xj Y.g.i.V.<.j.j.j.j.j.j.j.j.j.j.j.j.j.j.j.j.,.T.N  X X X X X X X X X",
" X X X X X X X X X Xf M.V.i.N.V.j.j.j.j.j.j.j.j.j.j.j.j.j.j.j.j.b.k.G  X X X X X X X X X",
" X X X X X X X X X Xj.p.k.g.j.p.j.j.j.j.j.j.j.j.j.j.j.j.j.j.j.j.b.A.c  X X X X X X X X X",
" X X X X X X X X X Xk.g.3.V.,.Y.i.p.g.j.b.b.k.k.f.j.k.k.g.f.f.g.k.f.-. X X X X X X X X X",
" X X X X X X X X X4.N.j.i.n.3.C.u.i.f.j.k.k.k.k.g.j.k.k.j.g.g.j.j.n.C.B. X X X X X X X X",
" X X X X X X X X XU U.j.k.g.f.b.2.u.f.j.j.j.j.j.j.j.k.j.j.j.j.k.i.k.R.s. X X X X X X X X",
" X X X X X X X X Xv U.f.M.i.n.g.-.3.f.j.g.f.g.j.k.j.g.g.j.k.k.k.f.f.C.>. X X X X X X X X",
" X X X X X X X X X*.C.u.N.u.V.g.&.2.f.k.g.f.f.j.k.g.p.p.j.b.b.k.N.b.M.]  X X X X X X X X",
" X X X X X X X X Xi.N.3.M.i.n.j.+.2.g.b.g.p.g.k.k.f.y.u.g.b.b.k.b.k.j.=. X X X X X X X X",
" X X X X X X X Xe.j.M.y.b.f.f.j...2.k.n.j.f.g.b.k.i.2.3.f.b.b.j.f.k.p.j. X X X X X X X X",
" X X X X X X X XA n.V.u.k.g.y.j...2.k.M.k.f.j.n.k.u.<.2.p.k.k.g.M.C.f.A. X X X X X X X X",
" X X X X X X X XV.g.k.M.f.p.j.g.) p.k.p.j.k.g.j.j.k.<.,.M.k.y.b.C.3.j.N.0. X X X X X X X",
" X X X X X X X~.N.g.k.n.f.f.j.f.) p.k.p.j.k.g.j.j.b.<.,.n.k.y.b.p.g.f.T.#. X X X X X X X",
" X X X X X X XG.n.f.j.n.g.g.k.u.) p.k.p.j.k.g.j.j.b.<.=.k.b.u.b.2.M.u.R.T  X X X X X X X",
" X X X X X X Xu.k.p.j.b.g.k.j.<.) p.k.p.j.k.g.j.g.n.<.&.j.b.i.k.i.M.y.k.=. X X X X X X X",
" X X X X X X(.Q.j.f.k.k.g.b.g.&.) p.k.p.j.k.g.j.f.M.<.+.p.b.p.j.b.g.g.2.M.6. X X X X X X",
" X X X X X Xa.i.j.g.b.k.g.b.p./ ) p.k.p.j.k.g.j.f.N.2.| i.b.p.j.b.u.n.u.A.J  X X X X X X",
" X X X X X XS.k.k.k.n.k.f.b.u.F ) p.k.p.j.k.g.j.p.N.2.) y.b.f.g.j.f.g.M.f.2. X X X X X X",
" X X X X X^.g.j.k.b.M.j.f.b.3.B ) p.k.p.j.k.g.j.p.V.2./ 3.n.f.g.g.n.<.U.&.Y. X X X X X X",
" X X X X X/.R.g.<.M.n.-.3.V.u.l 3.f.n.n.g.i.f.k.j.C.y.! =.b.k.u.g.2.N.f.y.Q.d. X X X X X",
" X X X X X_.u.V.U.j.p.C.R.j.G M ~ ( *.j.N.V.V.A.n.b.*.F @.n.Y.E.C.n.M.N.R.n. X X X X X X",
" X X X X X X Xv.o.*.h.L. X X X X X X X).~.P.K.H.t.r.$.D b h g i ) 2.&. .c.J. X X X X X X",
" X X X X X X X X X X X X X X X X X X X X X X X X X X X X X X X X X X X X X X X X X X X X",
" X X X X X X X X X X X X X X X X X X X X X X X X X X X X X X X X X X X X X X X X X X X X",
" X X X X X X X X X X X X X X X X X X X X X X X X X X X X X X X X X X X X X X X X X X X X",
" X X X X X X X X X X X X X X X X X X X X X X X X X X X X X X X X X X X X X X X X X X X X",
" X X X X X X X X X X X X X X X X X X X X X X X X X X X X X X X X X X X X X X X X X X X X"
};
