/* XPM */
static char *_684758033690[] = {
/* columns rows colors chars-per-pixel */
"64 64 57 1 ",
"  c #37440C",
". c #38460B",
"X c #38450D",
"o c #3A480D",
"O c #3C4A0F",
"+ c #3B4810",
"@ c #3C4911",
"# c #3D4B10",
"$ c #3D4A12",
"% c #3E4B13",
"& c #3E4C11",
"* c #3F4D12",
"= c #3F4C14",
"- c #404E13",
"; c #404D15",
": c #414F14",
"> c #414E16",
", c #424F17",
"< c #425015",
"1 c #435116",
"2 c #445217",
"3 c #435018",
"4 c #445119",
"5 c #455318",
"6 c #45521A",
"7 c #46531B",
"8 c #465419",
"9 c #47551A",
"0 c #47541C",
"q c #48561B",
"w c #48551D",
"e c #49571C",
"r c #49561E",
"t c #4A571F",
"y c #4A581D",
"u c #4B591E",
"i c #4C5A1F",
"p c #4B5820",
"a c #4C5921",
"s c #4D5B20",
"d c #4D5A22",
"f c #4E5B23",
"g c #4E5C21",
"h c #4F5D22",
"j c #4F5C24",
"k c #505E23",
"l c #505D25",
"z c #515F24",
"x c #515E26",
"c c #526025",
"v c #536126",
"b c #546227",
"n c #556328",
"m c #566429",
"M c #57652A",
"N c #57642C",
"B c #58652D",
/* pixels */
"588899qq28eyy92<55522111898:#&5sehbciyhneeeeeeeezzkkhhhgeeeeeeee",
"88899qqq58euyq2<8555221118q5-*2yuyeyisiueeeeeeeegggssiii99999999",
"88999qqq59euyq5188855522-5yy5<29i5-1uhy1eeeeeeeeuyyyeeqq55555555",
"9999qqee89yuuq5199988855&5sge215y815yiy8qqqqqqqq9998885511111111",
"99qqeeey8qyiue82eqqq9988*8ghy5288ugsequhqqqqqqqq8885522211111111",
"qqqeeeyy9quiiy82yeeeqq991qssq59y2izhq5uc999999999998885588888888",
"qqeeeyyy9eusiy95yyyeeqqqquie52eh59qq99ey99999999yeeeqq99eeeeeeee",
"qqeeyyyu9eissy95uuyyeeqquii9<1uc9:#-9y8-99999999uuuyyeeeiiiiiiii",
"8quggsyq889qeeyyyyeeqqq9qqqqqqqq11225558ue5<<5eu588899qqu-es<9k8",
"8quggsyq889qeeyyzkkkhhggqqqqqqqq558899qq<5euue5<88899qqqq-eh8qg2",
"8quggsyq889qeeyy88855222qqqqqqqqqqeeyyuu<5euue5<88999qqq2:ykyyu<",
"8quggsyq889qeeyyssiiuuuyqqqqqqqqyuuuiissue5<<5eu9999qqee:1yhsuq<",
"8quggsyq889qeeyyiiiuuyyyqqqqqqqqyuuuiissue5<<5eu99qqeeey<9eugu88",
"8quggsyq889qeeyy522211<<qqqqqqqqqqeeyyuu<5euue5<qqqeeeyy5u82ue8i",
"8quggsyq889qeeyygggssiiiqqqqqqqq558899qq<5euue5<qqeeeyyyyh2#998v",
"8quggsyq889qeeyy99888555qqqqqqqq11225558ue5<<5euqqeeyyyusc<.289M",
"5ss21iu<99999999iyq89eiguyyyeeqq588899qqgiyq5<-*ggssiiuuuyye9885",
"9uu88ee599999999q82<15eu111<<<::88899qqqzkhsuyeqyeeeqq991159euss",
"iq9uy88eqqqqqqqq82<--18qeeqq999888999qqqsssiiiii888552221159euss",
"h55gs21ieeeeeeeeq82<<5qyiiuuyyye9999qqee22589qqe99988855uyye9885",
"h88gg22syyyyyyyysuq99ysh22211<<<99qqeeey22589qqeuuuyyeeeuyye9885",
"seeii99uuuuuuuuuhsyeeihz99988555qqqeeeyysssiiiiiiiiuuyyy1159euss",
"ysseqiu9iiiiiiiiiyq89eihsiiiuuyyqqeeeyyyzkhsuyeqeeqq99981159euss",
"9kk88hg5iiiiiiiie92118eu55522211qqeeyyyugiyq5<-*5522111<uyye9885",
"iiye985218euiyq8yyyyeeqqeeeqq999iq89izbnhsq51128yyyeeqqqiue81:*&",
"uuye985518euiyq8yyyyeeqqkkkhhggge955egzvgie858ey98885522siuyq852",
"eeeq998818euiyq8yyyyeeqquuyyeeeq85212qihsueqeuhzhgggssiiiiiiiuuu",
"9999999918euiyq8yyyyeeqqqq998885155<-<qsiyeeuhvmhhhggsssqqeyuuis",
"25589qqe18euiyq8yyyyeeqqkhhhggss19q2&#5iuyqqygcn111<<:::125589qe",
"<<259qyy18euiyq8yyyyeeqqsiiiuuyy2ys9&O2guy989ysh2211<<<:55522222",
"-:<29eyu18euiyq8yyyyeeqq999885559gcu*O5ziy82128qiiuuyyyeiuyq8521",
"*-<29eui18euiyq8yyyyeeqqgggssiiiezmg-O8csy8<--<1qqq99888vzhsy952",
"99qeyuuiuuiiissskkkkkkkkcs5-*2ukssiye985iuyq82<:rw76,>=%33344666",
"99qeyuui9qqqeeyyyyyyyyyyhu81<5eiiiuye988uueq821<ffapr07633446667",
"9qqeyuii5558899922222222ye985899uyyeqq99yeq98522ddaptrw044666777",
"qqeyuiis999qqeee22222222889q9821qqqqqqqqqq9998887766444466777000",
"qeeyuissiiissgggqqqqqqqq5589851<5889qeyy888999qq446667777700wwwr",
"eeyuissgggghhkkkuuuuuuuu9821<1121258qyuu22589qeyrrtpdffj00wwrrrt",
"eyyuisgguuiissgguuuuuuuuy9<&#-2q:<28qyis<128qeuuwrtpdjlxwwwrrttt",
"eyuuisggqqqeeeyyyyyyyyyys9-oo*5y-:15qyis:<28qyui>,360rpawwrrttpp",
"9999999999999999ssssssssns9qsg9-22222222888999qq0f4=aatB+>7733wd",
"9999999999999999uuuuuuuui8<5igy599999999888999qqtdw4w06p4;$>wpr6",
"9999999999999999999999991-*1esieyyyyyyyy888999qqp0tp4,,@7>=,wpw4",
"99999999qqqqqqqq22222222<::18999eeeeeeee888999qq6%rf,,6 ;6rw3>6t",
"99999999qqqqqqqq111111119qq81:<<55555555888999qq%X6d47t%3wpr3>4r",
"99999999eeeeeeee22222222ysgu2-<211111111888999qq=$3w7rawdw34wr6;",
"99999999eeeeeeee888888889szg95eg88888888888999qqwp74rr0djt66wr4%",
"99999999eeeeeeeeqqqqqqqq1ykhyykMyyyyyyyy888999qqxNt>t0,fwaft3=,6",
"ie2-&-28-19uiiyeqq999888czhie82129usse5<uyyyeeqquuyeqq99yeq51:*&",
"1<-*:8ugeyiiu91-qq999888ye95<-&#59yiie51yyyeeqqqeeqq9855q9852<<:",
"1<::19useyiiu91-qq999888ggiyq8228qyuue82yyeeeqqq998521<<22255558",
"yeq85222-19uiiyeqq999888hhgiuyeqqeeeeq98yeeeqq995521<<:-:<1289qe",
"eeeeq821-19uiiyeqq99988885552111yeq9999qeeqq999988521<::<1259qey",
"-18yisiueyiiu91-qq999888999999qqiyq558qyqqq99988eq99852258888999",
"-1qiggiyeyiiu91-qq999888uuuisgghsu9228euqqq99888iuuyeq99yee98521",
"9yshgy5<-19uiiyeqq999888112589qqgu9115eiqq998885ggsiuyyesiyq81<:",
"8ysu518yiyq9qugz999qqeeeyyyyyyyy:qgi82yziiuuuyyy99999999eeeqq999",
"8ysu518ygie99eis999qqeeeeeeeeeee5quyqqugiuuuyyee99999999eeeqq999",
"8ysu518ychuq88qe8899qqeeqqqqqqqqe959usieuuyyeeeq99999999yyeeqq99",
"8ysu518ybziq525888899qqq99999999i8<5szs8yyeeqqq9qqqqqqqqyyyeeqqq",
"8ysu518ybzi92125558899qq88888888i8<5szs8eeqq9988qqqqqqqquuyyeeeq",
"8ysu518ykgy825895558899955555555e959usieq9998855eeeeeeeeuuuyyeee",
"8ysu518yiy9559eu25558899222222225quyqqug99885552eeeeeeeeiuuuyyee",
"8ysu518ye9525qug2255888922222222:qgi82yz88885522eeeeeeeeiiuuyyye"
};
