/* XPM */
static char *_685355679009[] = {
/* columns rows colors chars-per-pixel */
"64 64 205 2 ",
"   c #A75C00",
".  c #AA5C00",
"X  c #A95400",
"o  c #A6581C",
"O  c #AB6300",
"+  c #AE6B00",
"@  c #B16D00",
"#  c #B47400",
"$  c #B67A02",
"%  c #BA7D00",
"&  c #B3730C",
"*  c #B37418",
"=  c #9C4932",
"-  c #9D4E3A",
";  c #97422A",
":  c #A34E3B",
">  c #A4523F",
",  c #AD6C23",
"<  c #AD692C",
"1  c #B46F2E",
"2  c #B1732B",
"3  c #B4792D",
"4  c #B47822",
"5  c #AE6731",
"6  c #B46B32",
"7  c #B67A32",
"8  c #B5753D",
"9  c #AA5A45",
"0  c #B15F4F",
"q  c #AD664A",
"w  c #B0664F",
"e  c #BE7D44",
"r  c #B87B46",
"t  c #B46A53",
"y  c #B86957",
"u  c #BB745C",
"i  c #B77554",
"p  c #BF7962",
"a  c #C37C65",
"s  c #BC8300",
"d  c #BF8800",
"f  c #BC8715",
"g  c #BC842C",
"h  c #BD8432",
"j  c #BD8936",
"k  c #BD863A",
"l  c #C28B00",
"z  c #C08A0E",
"x  c #C69302",
"c  c #C89608",
"v  c #C18C1B",
"b  c #C59310",
"n  c #C9981B",
"m  c #C28F2D",
"M  c #C28F22",
"N  c #C69325",
"B  c #CC9D24",
"V  c #C4912C",
"C  c #CB9C2D",
"Z  c #C59332",
"A  c #C6953A",
"S  c #CB9D3B",
"D  c #CB9E37",
"F  c #CFA42E",
"G  c #D0A42F",
"H  c #D3A83A",
"J  c #BB8245",
"K  c #BC824B",
"L  c #BF8C4C",
"P  c #BC8151",
"I  c #BE8264",
"U  c #C18849",
"Y  c #C5934B",
"T  c #C8994E",
"R  c #C28B59",
"E  c #C38956",
"W  c #C39152",
"Q  c #CB9D56",
"!  c #CB975E",
"~  c #C89759",
"^  c #D2A642",
"/  c #D5AD4C",
"(  c #D2A848",
")  c #CDA25A",
"_  c #CEA355",
"`  c #D3AA51",
"'  c #D0A459",
"]  c #D4AC5B",
"[  c #D0A656",
"{  c #DCB85E",
"}  c #D9B359",
"|  c #C4846C",
" . c #C58B6D",
".. c #C68767",
"X. c #CD9D64",
"o. c #CC9767",
"O. c #D09D64",
"+. c #CE8C76",
"@. c #CA8A72",
"#. c #CC9776",
"$. c #D2937B",
"%. c #D09D7A",
"&. c #CEA363",
"*. c #D4AD62",
"=. c #D2A46B",
"-. c #D5AC6D",
";. c #D0A063",
":. c #D6B265",
">. c #DEBB62",
",. c #D6B169",
"<. c #D9B568",
"1. c #DCBB6E",
"2. c #D9B565",
"3. c #CFA17B",
"4. c #D6AB7E",
"5. c #D5A878",
"6. c #D7B075",
"7. c #DAB573",
"8. c #DDBC73",
"9. c #DDBB7B",
"0. c #D9B47C",
"q. c #E1BF6D",
"w. c #E0BD61",
"e. c #DFC17B",
"r. c #E2C06C",
"t. c #E1C27D",
"y. c #E6C97A",
"u. c #E5C475",
"i. c #D49C83",
"p. c #D2A183",
"a. c #D9A48A",
"s. c #D7AA89",
"d. c #D7AC83",
"f. c #DAB384",
"g. c #DCBC84",
"h. c #DDBA8B",
"j. c #DCB388",
"k. c #DCAB90",
"l. c #DDB391",
"z. c #DFBA95",
"x. c #E1BE89",
"c. c #E1AA94",
"v. c #E0BD95",
"b. c #E3B49B",
"n. c #E6B89E",
"m. c #E7BCA2",
"M. c #DFC284",
"N. c #DFC08B",
"B. c #E3C683",
"V. c #E2C58D",
"C. c #E7CC8A",
"Z. c #E8CE8B",
"A. c #E9CE85",
"S. c #EED68D",
"D. c #EAD184",
"F. c #E4C594",
"G. c #E6CC93",
"H. c #E4C59A",
"J. c #E6CA9B",
"K. c #E8CF9C",
"L. c #E8CE92",
"P. c #EAD293",
"I. c #EBD39B",
"U. c #EFD99A",
"Y. c #F0DC9B",
"T. c #EAC3AA",
"R. c #EDCCAE",
"E. c #E9C7A3",
"W. c #EBD5A3",
"Q. c #EED9A3",
"!. c #EEDAA9",
"~. c #EFD3AF",
"^. c #F1DDA4",
"/. c #F1DFAC",
"(. c #EDCAB1",
"). c #F0CCB6",
"_. c #F2CEB8",
"`. c #EFD3B4",
"'. c #F0DBB3",
"]. c #F2DCBB",
"[. c #F2D4BD",
"{. c #F2E0AE",
"}. c #F3E1A4",
"|. c #F5E5B5",
" X c #F7E8B5",
".X c #F5E4BB",
"XX c #F7E9BB",
"oX c #F8EBBE",
"OX c #F5DCC0",
"+X c #F5D6C1",
"@X c #F6E4C2",
"#X c #F7EAC3",
"$X c #F9EDC4",
"%X c #F8E4CB",
"&X c #F9EDCA",
"*X c #F8E3C6",
"=X c #FAF1CC",
"-X c #FAECD2",
";X c #FBF2D3",
":X c #FCF6DB",
">X c #FDF7E1",
",X c #FDF8E4",
"<X c #FEFBEE",
"1X c #FEFBF0",
"2X c None",
/* pixels */
"2X2X2X2X2X2X2X2X2X2X2X2X2X2X2X2X2X2X2X2X2X2X2X2X2X2X2X2X2X2X2X2X2X2X2X2X2X2X2X2X2X2X2X2X2X2X2X2X2X2X2X2X2X2X2X2X2X2X2X2X2X2X2X2X",
"2X2X2X2X2X2X2X2X2X2X2X2X2X2X2X2X2X2X2X2X2X2X2X2X2X2X2X2X2X2X2X2X2X2X2X2X2X2X2X2X2X2X2X2X2X2X2X2X2X2X2X2X2X2X2X2X2X2X2X2X2X2X2X2X",
"2X2X2X2X2X2X2X2X2X2X2X2X2X2X2X2X2X2X2X2X2X2X2X2X2X2X2X2X2X2X2X2X2X2X2X2X2X2X2X2X2X2X2X2X2X2X2X2X2X2X2X2X2X2X2X2X2X2X2X2X2X2X2X2X",
"2X2X2X2X2X2X2X2X2X2X2X2X2X2X2X2X2X2X2X2X2X2X2X2X2X2X2X2X2X2X2X2X2X2X2X2X2X2X2X2X2X2X2X2X2X2X2X2X2X2X2X2X2X2X2X2X2X2X2X2X2X2X2X2X",
"2X2X2X2X2X2X2X2X2X2X2X2X2X2X2X2X2X2X2X2X2X2X2X2X2X2X2X2X2X2X2X2X2X2X2X2X2X2X2X2X2X2X2X2X2X2X2X2X2X2X2X2X2X2X2X2X2X2X2X2X2X2X2X2X",
"2X2X2X2X2X2X2X2X2X2X2X2X2X2X2X2X2X2X2X2X2X2X2X2X2X2X2X2X2X2X2X2X= 2X2X2X2X2X2X2X2X2X2X2X2X2X2X2X2X2X2X2X2X2X2X2X2X2X2X2X2X2X2X2X",
"2X2X2X2X2X2X2X2X2X2X2X2X2X2X2X2X2X2X2X2X2X2X2X2X2X2X2X2X2X2X2X2X9 2X2X2X2X2X2X2X2X2X2X2X2X2X2X2X2X2X2X2X2X2X2X2X2X2X2X2X2X2X2X2X",
"2X2X2X2X2X2X2X2X2X2X2X2X2X2X2X2X2X2X2X2X2X2X2X2X2X2X2X2X2X2X2X2Xu 2X2X2X2X2X2X2X2X2X2X2X2X2X2X2X2X2X2X2X2X2X2X2X2X2X2X2X2X2X2X2X",
"2X2X2X2X2X2X2X2X2X2X2X2X2X2X2X2X2X2X2X2X2X2X2X2X2X2X2X2X2X2X2X2X@.2X2X2X2X2X2X2X2X2X2X2X2X2X2X2X2X2X2X2X2X2X2X2X2X2X2X2X2X2X2X2X",
"2X2X2X2X2X2X2X2X2X2X2X2X2X2X2X2X2X2X2X2X2X2X2X2X2X2X2X2X2X2X2Xi i.2X2X2X2X2X2X2X2X2X2X2X2X2X2X2X2X2X2X2X2X2X2X2X2X2X2X2X2X2X2X2X",
"2X2X2X2X2X2X2X2X2X2X2X2X2X2X2X2X2X2X2X2X2X2X2X2X2X2X2X2X2X2X2XI b.2X2X2X2X2X2X2X2X2X2X2X2X2X2X2X2X2X2X2X2X2X2X2X2X2X2X2X2X2X2X2X",
"2X2X2X2X2X2X2X2X2X2X2X2X2X2X2X2X2X2X2X2X2X2X2X2X2X2X2X2X2X2X2X .m.2X2X2X2X2X2X2X2X2X2X2X2X2X2X2X2X2X2X2X2X2X2X2X2X2X2X2X2X2X2X2X",
"2X2X2X2X2X2X2X2X2X2X2X2X2X2X2X2X2X2X2X2X2X2X2X2X2X2X2X2X2X2X2X#.T.2X2X2X2X2X2X2X2X2X2X2X2X2X2X2X2X2X2X2X2X2X2X2X2X2X2X2X2X2X2X2X",
"2X2X2X2X2X2X2X2X2X2X2X2X2X: 2X2X2X2X2X2X2X2X2X2X2X2X8 2X2X2X2X3.R.2X2X2X2X2X2X2X2X2X2X2X2X2X2X2X2X2X> 2X2X2X2X2X2X2X2X2X2X2X2X2X",
"2X2X2X2X2X2X2X2X2X2X2X2X2X2Xy t 2X2X2X2X2X2X2X2X2X2XO.2X2X2X2Xd.[.2X2X2X2X2X2X2X2X2X2X2X2X2X2X2X2Xu 2X2X2X2X2X2X2X2X2X2X2X2X2X2X",
"2X2X2X2X2X2X2X2X2X2X2X2X2X2X2X$. .2X2X2X2X2X2X2X2X2Xf.R 2X2X2Xf.].O 2X2X2X2X2X2XU 2X2X2X2X2X2Xi $.2X2X2X2X2X2X2X2X2X2X2X2X2X2X2X",
"2X2X2X2X2X2X2X2X2X2X2X2X2X2X2X2Xb.p.2X2X2X2X2X2X2X2X4.f.2X2X2Xh.].# 2X2X2X2X2XX.2X2X2X2X2X2X .n.q 2X2X2X2X2X2X2X2X2X2X2X2X2X2X2X",
"2X2X2X2X2X2X2X2X2X2X2X2X2X2X2X2Xo (.k.2X2X2X2X2X2X2XL J.+ 2X2Xh.@X% 2X2X2X2XU 6.2X2X2X2X2X3._.i 2X2X2X2X2X2X2X2X2X2X2X2X2X2X2X2X",
"2X2X2X2X2X2X2X2X2X2X2X2X2X2X2X2X2X1 +Xv.2X2X2X2X2X2X2XJ.&.2X2XN.@Xs 2X2X2X2X7.U 2X2X2X2Xd.+X..2X2X2X2X2X2X2X2X2X2X2X2X2X2X2X2X2X",
"2X2X2X2X2X2X2X2X2X2X2X2X2X2X2X2X2X2XU OXE.. 2X2X2X2X2Xg.V.O . V.@Xl 2X2X2X) 8.2X2X2X2Xv.%XO.2X2X2X2X2X2X2X2X2X2X2X2X2X2X2X2X2X2X",
"2X2X2X2X2X2X2X2X2X2X2X2X2X2X2X2X2X2X2X~ %XE.@ 2X2X2X2X) W.V # V.#XN 2X2X# 9.Q 2X2XO F.-X-.2X2X2X2X2X2X2X2X2X2X2X2X2X2X2X2X2X2X2X",
"2X2X2X2X2X2X2X2X2X2X2X2X2X2X2X2X2X2X2X2X' -XW.s 2X2X2Xd I.7.$ G.#XS 4 # ] x.# 2X# G.-X6.2X2X2X2X2X2X2X2X2X2X2X2X2X2X2X2X2X2X2X2X",
"2X2X2X2X2X2X2X2X2X2X2X2X2X2X2X2X2X2X2X2X2X*.-X!.d 2 3 % G.I.x I.&X^ g V C.*.* l K.;X9.2X2X2X2X2X2X2X2X2X2X2X2X2X2X2X2X2X2X2X2X2X",
"2X2X2X2X2X2X2X2X2X2X2X2X2X2X2XK K 2X2X2X2XO <.-X!.x h f 8.{./ W.&X} N 8.Z.m x K.:X9.@ 2X2X2X2X2XJ 6 2X2X2X2X2X2X2X2X2X2X2X2X2X2X",
"2X2X2X2X2X2X2X2X2X2X2X2X2X2X2X2XX.6.~ 2X2X2X$ 8.;X!.H Y / |.C.!.=X8.] U.8.F Q.:XB.% 2X2X2XL -.X.2X2X2X2X2X2X2X2X2X2X2X2X2X2X2X2X",
"2X2X2X2X2X2X2X2X2X2X2X2X2X2X2X2X2XJ 6.9.&.$ @ d y.:X|.{ { {.|.|.:XD.P.Q.{ {.:XZ.x * # T 7.7.W 2X2X2X2X2X2X2X2X2X2X2X2X2X2X2X2X2X",
"2X2X2X2X2X2X2X2X2X2X2X2X2X2X2X2X2X2X2XY 9.B.,.A n C.:XoXD.}.;X=X,X}. X}.XX:XU.B V ' t.9.Q 2X2X2X2X2X2X2X2X2X2X2X2X2X2X2X2X2X2X2X",
"2X2X2X2X2X2X2X2X2X2X2X2X2X2X2X2X2X2X2X2X+ _ B.L.e.>.U.,X=X X:X,X>X=X=X;X,X/.} 1.Z.C.*.$ 2X2X2X2X2X2X2X2X2X2X2X2X2X2X2X2X2X2X2X2X",
"2X2X2X2X2X2X2X2X2X2X2X2X2X2X2X2X2X2X2X2X2X# z 2.I.}.^.oX<X:X,X<X<X<X,X<X$XU.^.U.8.V $ , 2X2X2X2X2X2X2X2X2X2X2X2X2X2X2X2X2X2X2X2X",
"2X2X2X2X2X2X2X2X2X2X2X2X2X2X2X2X2X2X2X2X2X3 h m ` C.|.=X,X<X<X1X<X<X1X,X=X XZ.] V j 3 2X2X2X2X2X2X2X2X2X2X2X2X2X2X2X2X2X2X2X2X2X",
"2X2X2X2X2X2X2X2X2X2X2X2X2X2X2X2X  + # s l b C ^ { y.Y.$X,X<X1X<X<X<X<X,X$XU.y.{ ^ C b d s # + . 2X2X2X2X2X2X2X2X2X2X2X2X2X2X2X2X",
"2X2X2X2X2X2X> w a +.a.b.m.T.R.`.`.'.].]..X@XXX#X&X;X:X,X,X1X<X1X<X<X<X<X,X:X;X&X$X#X@X.X.X].'.'.`.~.T.m.n.k.$.a y 9 = 2X2X2X2X2X",
"2X2X2X2X2X2X2X2Xw p | #.i.s.l.v.z.F.H.J.K.W.W.!./.oX$X;X,X<X1X<X<X<X1X,X;X$XoX|.!.W.I.K.J.H.H.F.z.l.s.p.%.@.p t 2X2X2X2X2X2X2X2X",
"2X2X2X2X2X2X2X2X2X2X2X2X2X2X2X2X2X2X2XO @ s l n / r.S. X:X1X<X<X1X1X<X,XoXS.r.^ n l s # O 2X2X2X2X2X2X2X2X2X2X2X2X2X2X2X2X2X2X2X",
"2X2X2X2X2X2X2X2X2X2X2X2X2X2X2X2X2X2X2X2X2X7 j Z ` C.|.=X,X1X<X<X1X1X1X,X=X XP.] V j 7 < 2X2X2X2X2X2X2X2X2X2X2X2X2X2X2X2X2X2X2X2X",
"2X2X2X2X2X2X2X2X2X2X2X2X2X2X2X2X2X2X2X2X2X# v 2.P.Q.}.=X,X,X:X:X<X,X;X,X=XU.Q.U.e.V $ , 2X2X2X2X2X2X2X2X2X2X2X2X2X2X2X2X2X2X2X2X",
"2X2X2X2X2X2X2X2X2X2X2X2X2X2X2X2X2X2X2X2X+ _ B.C.e.r. X>XoX$X X=X,X:X X X>XoX{ 1.C.C.2.$ 2X2X2X2X2X2X2X2X2X2X2X2X2X2X2X2X2X2X2X2X",
"2X2X2X2X2X2X2X2X2X2X2X2X2X2X2X2X2X2X2XY 8.t.2.A F Q.:X}.Y.|.S.XX:X$X|.y.U.:X|.H V ' e.t.) 2X2X2X2X2X2X2X2X2X2X2X2X2X2X2X2X2X2X2X",
"2X2X2X2X2X2X2X2X2X2X2X2X2X2X2X2X2Xe -.7.) $ & x I.:XP.{ Q.A.1.{.;XY.oX8./ A.;X{.n * # Y 7.7.W 2X2X2X2X2X2X2X2X2X2X2X2X2X2X2X2X2X",
"2X2X2X2X2X2X2X2X2X2X2X2X2X2X2X2X! -.W 2X2X2Xs I.;XZ.B 8.P.` ^ U.=Xu.!.e.Z C t.=X!.l 2X2X2XJ -.X.2X2X2X2X2X2X2X2X2X2X2X2X2X2X2X2X",
"2X2X2X2X2X2X2X2X2X2X2X2X2X2X2Xe r 2X2X2X2X# G.;XB.x Z C.2.V N I.$X} Z.P.b k s 8.=XW.% 2X2X2X2X2XK 5 2X2X2X2X2X2X2X2X2X2X2X2X2X2X",
"2X2X2X2X2X2X2X2X2X2X2X2X2X2X2X2X2X2X2X2X. G.&X9.% * *.B.M j d G.$X^ <.Q.S 4 2 # 2.&XI.@ 2X2X2X2X2X2X2X2X2X2X2X2X2X2X2X2X2X2X2X2X",
"2X2X2X2X2X2X2X2X2X2X2X2X2X2X2X2X2X2X2X2XV.%X7.@ 2X# t.[ # 3 % Z.oXS N U.,.+ 2X2XO *.%XJ.X 2X2X2X2X2X2X2X2X2X2X2X2X2X2X2X2X2X2X2X",
"2X2X2X2X2X2X2X2X2X2X2X2X2X2X2X2X2X2X2Xj.*X6.2X2X2XQ 8.# 2X, @ V.|.Z + g.B.O 2X2X2X2X' *XH.2X2X2X2X2X2X2X2X2X2X2X2X2X2X2X2X2X2X2X",
"2X2X2X2X2X2X2X2X2X2X2X2X2X2X2X2X2X2X4.+XO.2X2X2X2X7.Y 2X2X2X  B.|.v 2XQ L.$ 2X2X2X2X2XW OXb.2X2X2X2X2X2X2X2X2X2X2X2X2X2X2X2X2X2X",
"2X2X2X2X2X2X2X2X2X2X2X2X2X2X2X2X2X#._. .2X2X2X2XW -.2X2X2X2X2Xg..Xs 2X@ V.X.2X2X2X2X2X2Xe ).a.2X2X2X2X2X2X2X2X2X2X2X2X2X2X2X2X2X",
"2X2X2X2X2X2X2X2X2X2X2X2X2X2X2X2X..m.R 2X2X2X2X2X=.J 2X2X2X2X2Xg.'.# 2X2X6.0.2X2X2X2X2X2X2X6 T.i.2X2X2X2X2X2X2X2X2X2X2X2X2X2X2X2X",
"2X2X2X2X2X2X2X2X2X2X2X2X2X2X2Xw c.u 2X2X2X2X2Xr ! 2X2X2X2X2X2Xf.'.@ 2X2XJ x.2X2X2X2X2X2X2X2Xo c.| 2X2X2X2X2X2X2X2X2X2X2X2X2X2X2X",
"2X2X2X2X2X2X2X2X2X2X2X2X2X2X2X+.9 2X2X2X2X2X2Xe 2X2X2X2X2X2X2X4.~.O 2X2X2X5.P 2X2X2X2X2X2X2X2X2X+.w 2X2X2X2X2X2X2X2X2X2X2X2X2X2X",
"2X2X2X2X2X2X2X2X2X2X2X2X2X2Xy 2X2X2X2X2X2X2X2X< 2X2X2X2X2X2X2X3.R.2X2X2X2XP R 2X2X2X2X2X2X2X2X2X2Xy - 2X2X2X2X2X2X2X2X2X2X2X2X2X",
"2X2X2X2X2X2X2X2X2X2X2X2X2X: 2X2X2X2X2X2X2X2X2X2X2X2X2X2X2X2X2X#.E.2X2X2X2X2Xr 2X2X2X2X2X2X2X2X2X2X2X: 2X2X2X2X2X2X2X2X2X2X2X2X2X",
"2X2X2X2X2X2X2X2X2X2X2X2X2X2X2X2X2X2X2X2X2X2X2X2X2X2X2X2X2X2X2X .n.2X2X2X2X2X2X2X2X2X2X2X2X2X2X2X2X2X2X2X2X2X2X2X2X2X2X2X2X2X2X2X",
"2X2X2X2X2X2X2X2X2X2X2X2X2X2X2X2X2X2X2X2X2X2X2X2X2X2X2X2X2X2X2XI b.2X2X2X2X2X2X2X2X2X2X2X2X2X2X2X2X2X2X2X2X2X2X2X2X2X2X2X2X2X2X2X",
"2X2X2X2X2X2X2X2X2X2X2X2X2X2X2X2X2X2X2X2X2X2X2X2X2X2X2X2X2X2X2Xu i.2X2X2X2X2X2X2X2X2X2X2X2X2X2X2X2X2X2X2X2X2X2X2X2X2X2X2X2X2X2X2X",
"2X2X2X2X2X2X2X2X2X2X2X2X2X2X2X2X2X2X2X2X2X2X2X2X2X2X2X2X2X2X2Xq +.2X2X2X2X2X2X2X2X2X2X2X2X2X2X2X2X2X2X2X2X2X2X2X2X2X2X2X2X2X2X2X",
"2X2X2X2X2X2X2X2X2X2X2X2X2X2X2X2X2X2X2X2X2X2X2X2X2X2X2X2X2X2X2X2Xa 2X2X2X2X2X2X2X2X2X2X2X2X2X2X2X2X2X2X2X2X2X2X2X2X2X2X2X2X2X2X2X",
"2X2X2X2X2X2X2X2X2X2X2X2X2X2X2X2X2X2X2X2X2X2X2X2X2X2X2X2X2X2X2X2X0 2X2X2X2X2X2X2X2X2X2X2X2X2X2X2X2X2X2X2X2X2X2X2X2X2X2X2X2X2X2X2X",
"2X2X2X2X2X2X2X2X2X2X2X2X2X2X2X2X2X2X2X2X2X2X2X2X2X2X2X2X2X2X2X2X: 2X2X2X2X2X2X2X2X2X2X2X2X2X2X2X2X2X2X2X2X2X2X2X2X2X2X2X2X2X2X2X",
"2X2X2X2X2X2X2X2X2X2X2X2X2X2X2X2X2X2X2X2X2X2X2X2X2X2X2X2X2X2X2X2X; 2X2X2X2X2X2X2X2X2X2X2X2X2X2X2X2X2X2X2X2X2X2X2X2X2X2X2X2X2X2X2X",
"2X2X2X2X2X2X2X2X2X2X2X2X2X2X2X2X2X2X2X2X2X2X2X2X2X2X2X2X2X2X2X2X2X2X2X2X2X2X2X2X2X2X2X2X2X2X2X2X2X2X2X2X2X2X2X2X2X2X2X2X2X2X2X2X",
"2X2X2X2X2X2X2X2X2X2X2X2X2X2X2X2X2X2X2X2X2X2X2X2X2X2X2X2X2X2X2X2X2X2X2X2X2X2X2X2X2X2X2X2X2X2X2X2X2X2X2X2X2X2X2X2X2X2X2X2X2X2X2X2X",
"2X2X2X2X2X2X2X2X2X2X2X2X2X2X2X2X2X2X2X2X2X2X2X2X2X2X2X2X2X2X2X2X2X2X2X2X2X2X2X2X2X2X2X2X2X2X2X2X2X2X2X2X2X2X2X2X2X2X2X2X2X2X2X2X",
"2X2X2X2X2X2X2X2X2X2X2X2X2X2X2X2X2X2X2X2X2X2X2X2X2X2X2X2X2X2X2X2X2X2X2X2X2X2X2X2X2X2X2X2X2X2X2X2X2X2X2X2X2X2X2X2X2X2X2X2X2X2X2X2X",
"2X2X2X2X2X2X2X2X2X2X2X2X2X2X2X2X2X2X2X2X2X2X2X2X2X2X2X2X2X2X2X2X2X2X2X2X2X2X2X2X2X2X2X2X2X2X2X2X2X2X2X2X2X2X2X2X2X2X2X2X2X2X2X2X"
};
