/* XPM */
static char *_684762899829[] = {
/* columns rows colors chars-per-pixel */
"64 64 219 2 ",
"   c #000000",
".  c #020B00",
"X  c #0A0E02",
"o  c #140000",
"O  c #1C0000",
"+  c #001300",
"@  c #0C1203",
"#  c #001C00",
"$  c #0F130A",
"%  c #0A1706",
"&  c #111604",
"*  c #1C1000",
"=  c #121A06",
"-  c #12150D",
";  c #141C08",
":  c #1A1A0A",
">  c #141613",
",  c #1A1D15",
"<  c #171A15",
"1  c #280E00",
"2  c #251500",
"3  c #261B00",
"4  c #2C1D00",
"5  c #231A09",
"6  c #341C00",
"7  c #002000",
"8  c #0A2700",
"9  c #092F00",
"0  c #142502",
"q  c #1A2B01",
"w  c #172109",
"e  c #1A260B",
"r  c #1D2B0C",
"t  c #0E3400",
"y  c #1B3C00",
"u  c #173B00",
"i  c #1D2516",
"p  c #202E0D",
"a  c #282408",
"s  c #352500",
"d  c #332B04",
"f  c #3C2D00",
"g  c #322B0E",
"h  c #23340E",
"j  c #26390F",
"k  c #253E00",
"l  c #212E11",
"z  c #292917",
"x  c #342C14",
"c  c #382F13",
"v  c #352E1A",
"b  c #253412",
"n  c #283716",
"m  c #273910",
"M  c #2A3C12",
"N  c #26311A",
"B  c #2D3D1B",
"V  c #28331C",
"C  c #3A3117",
"Z  c #37311C",
"A  c #3C331A",
"S  c #3E320B",
"D  c #222320",
"F  c #3E3620",
"G  c #353A29",
"H  c #443400",
"J  c #473800",
"K  c #4B3C02",
"L  c #47390A",
"P  c #4C3C0A",
"I  c #443607",
"U  c #513E00",
"Y  c #41371B",
"T  c #443A1D",
"R  c #493E1E",
"E  c #453A15",
"W  c #462B00",
"Q  c #453B22",
"!  c #4A3F21",
"~  c #423C28",
"^  c #1C4300",
"/  c #274800",
"(  c #334C00",
")  c #3A5800",
"_  c #2E4113",
"`  c #314514",
"'  c #354A16",
"]  c #364B18",
"[  c #394E19",
"{  c #33461A",
"}  c #3C531A",
"|  c #3D5417",
" . c #324122",
".. c #39442C",
"X. c #364129",
"o. c #3E5322",
"O. c #4F4102",
"+. c #544402",
"@. c #5B4C02",
"#. c #54430B",
"$. c #4E4019",
"%. c #574A19",
"&. c #40571C",
"*. c #445B1E",
"=. c #5F5811",
"-. c #614F14",
";. c #61551D",
":. c #4D6B00",
">. c #4A6708",
",. c #516F00",
"<. c #547300",
"1. c #5E7A00",
"2. c #59750C",
"3. c #526D12",
"4. c #526B19",
"5. c #5A751D",
"6. c #5A7518",
"7. c #496411",
"8. c #617D0D",
"9. c #627D19",
"0. c #4D4223",
"q. c #4A422A",
"w. c #46422E",
"e. c #524524",
"r. c #564926",
"t. c #5B4C24",
"y. c #52462A",
"u. c #554A2B",
"i. c #5B4E2A",
"p. c #465D21",
"a. c #485F23",
"s. c #425724",
"d. c #5E532B",
"f. c #494533",
"g. c #44483E",
"h. c #514731",
"j. c #544E3C",
"k. c #49523F",
"l. c #495835",
"z. c #5B523A",
"x. c #5F5532",
"c. c #62552D",
"v. c #65592E",
"b. c #6A5A2D",
"n. c #635532",
"m. c #645A33",
"M. c #6B5D34",
"N. c #675A39",
"B. c #476020",
"V. c #4B6323",
"C. c #4F6825",
"Z. c #4E662A",
"A. c #506625",
"S. c #526B26",
"D. c #556E28",
"F. c #577029",
"G. c #5B742B",
"H. c #5F782C",
"J. c #5B7621",
"K. c #5D7531",
"L. c #617C24",
"P. c #627B2E",
"I. c #6D6132",
"U. c #666031",
"Y. c #756839",
"T. c #72663A",
"R. c #657E31",
"E. c #647B3B",
"W. c #687F3E",
"Q. c #68622C",
"!. c #575A48",
"~. c #4F514C",
"^. c #615C4B",
"/. c #615E54",
"(. c #596946",
"). c #606F4E",
"_. c #687A4B",
"`. c #666358",
"'. c #716C5D",
"]. c #756C52",
"[. c #6C7B57",
"{. c #797455",
"}. c #6A6B64",
"|. c #726D61",
" X c #78766A",
".X c #837C5F",
"XX c #837C68",
"oX c #827F76",
"OX c #68831C",
"+X c #68822A",
"@X c #678031",
"#X c #6B8433",
"$X c #6C8439",
"%X c #728936",
"&X c #738A3B",
"*X c #6D8342",
"=X c #768B48",
"-X c #748658",
";X c #7B8A64",
":X c #7E8C6A",
">X c #768660",
",X c #7E8278",
"<X c #829559",
"1X c #868166",
"2X c #87986B",
"3X c #8A857C",
"4X c #82827C",
"5X c #8C9979",
"6X c #928D78",
"7X c #98A67D",
"8X c #8B9186",
"9X c #949783",
"0X c #858782",
"qX c #A09D95",
"wX c #9BA885",
"eX c #9FA992",
"rX c #AFAEA8",
"tX c #BEC4B3",
"yX c None",
/* pixels */
"yXyXyXyXyXyXyXyXyXyXyXyXyXyXyXyXyXyXyXyXyXyXyXyXyXyXyXyXyXyXyXyXyXyXyXyXyXyXyXyXyXyXyXyXyXyXyXyXyXyXyXyXyXyXyXyXyXyXyXyXyXyXyXyX",
"yXyXyXyXyXyXyXyXyXyXyXyXyXyXyXyXyXyXyXyXyXyXyXyXyXyXyXyXyXyXyXyXyXyXyXyXyXyXyXyXyXyXyXyXyXyXyXyXyXyXyXyXyXyXyXyXyXyXyXyXyXyXyXyX",
"yXyXyXyXyXyXyXyXyXyXyXyXyXyXyXyXyXyXyXyXyXyXyXyXyXyXyXyXyXyXyXyXyXyXyXyXyXyXyXyXyXyXyXyX$XeX7X:.yXyX7XyXyXyXyXyXyXyXyXyXyXyXyXyX",
"yXyXyXyXyXyXyXyXyXyXyXyXyXyXyXyXyXyXyXyXyXyXyXyXwXyXyXyXyXyXyXyXyXyXyXyXyXyXyX5X-X).[.$XL.3.OX*XtXP.yXyXyXyXyXyXyXyXyXyXyXyXyXyX",
"yXyXyXyXyXyXyXyXyXyXyXyXyXyXyXyXyXyXyXyXyXyXyXwX<.3.-X:X$X$XE.:XyXyXyXyX*X:.<.<.>.4.+X@X$XR.R.@XOX*XyXyXyXyXyXyXyXyXyXyXyXyXyXyX",
"yXyXyXyXyXyXyXyXyXyXyXyXyXyXyXyXyXyXyXyXyXyXyXG.R.#X6.5.H.H.H.2.:.[._.:.P.@X$X$X$X#X#X%X#X%X@X+X%X+XG.yXyXyXyXyXyXyXyXyXyXyXyXyX",
"yXyXyXyXyXyXyXyXyXyXyXyXyXyXyXyXyXyXyXyXyXyX7.H.@X#X$X$X@X%X#X@X@XJ.J.W.@X#X#X%X%X%X%X%X%X%X#X@X#X%X@X) 2XyXyXyXyXyXyXyXyXyXyXyX",
"yXyXyXyXyXyXyXyXyXyXyXyXyX=X2XyX$X9X_.:X:X:.@X#X#X#X%X#X%X&X%X%X@XR.@X@X#X%X%X%X%X%X%X%X%X%X%X%X#X#X%X=X2.K.yXyXyXyXyXyXyXyXyXyX",
"yXyXyXyXyXyXyXyXyXyXyXyXyX-XOXOXP.,.J.6.6.@X+X@X%X%X#X&X%X%X%X%X%X%X%X@X#X%X%X%X%X%X%X%X%X%X%X%X#X#X%X%X&XL.4.yXyXyXyXyXyXyXyXyX",
"yXyXyXyXyXyXyXyXyXyXyXyX:XL.$XR.@X$X@X@XR.@X&X#X+X#X&X#X%X%X%X%X%X%X%X#X#X%X%X%X%X%X%X%X%X%X%X%X%X%X%X%X#X#XH.G.yXyXyXyXyXyXyXyX",
"yXyXyXyXyXyXyXyXyXyXyX*X2.%X#X@X#X+XP.H.F.G.F.#X&X+X#X%X%X%X&X%X%X%X%X#X%X%X%X%X%X%X%X%X%X%X%X%X%X%X%X%X%X%X#X5.S.yXyXyXyXyXyXyX",
"yXyXyXyXyXyXyXyXyXyX;X6.$X@X@X@X@X@XH.D.C.C.C.@X@X@X+X%X%X%X&X&X%X#X@XP.H.G.$X%X#X#X%X%X%X%X%X%X%X%X%X%X%X%X%X$X) (.yXyXyXyXyXyX",
"yXyXyXyXyXyXyX=X+X8.L.#XR.P.P.R.@XH.F.V.C.V.B.B.C.F.H.@X#X#X#X#X#XP.H.F.G.H.P.P.@XP.@X@X#X#X#X%X%X%X%X%X%X%X%X%XR.) 2XyXyXyXyXyX",
"yXyXyXyXyXyXyX*XP.&X%X$X%X@X%X%X@XD.C.B.B.B.B.C.S.D.F.F.H.H.P.P.H.P.G.P.#XR.G.P.F.H.P.P.@X@X%X%X%X%X%X%X%X%X%X@X%XD.S.<.wXyXyXyX",
"yXyXyXyXyXyX<XP.P.P.#X%X%XR.%XR.D.F.C.V.*.| *.C.H.G.C.D.G.G.H.G.P.#X#XR.%X#XF.A.F.C.D.G.P.P.@X%X%X%X%X%X%X%X%X@XP.V.s.E.1.yXyXyX",
"yXyXyXyXyXyX2X$XL.A.G.L.#XG.P.F.S.C.V.V.*.} C.@X#XH.S.D.F.S.G.H.%X@X%XH.P.P.p.V.V.V.V.A.H.P.#X%X#X%X%X%X%X%X%XR.H.A.s./ :X=XyXyX",
"yXyXyXyXyXyXyX7XS.*.C.C.C.S.D.C.C.C.B.B.*.[ V.#X#X@XG.H.G.G.H.@XR.P.H.H.P.G.*.V.*.&.&.C.S.F.H.P.L.%X%X%X%X%X%X#XH.V.a.9 yXyXyXyX",
"yXyXyXyXyXyXyXyX8X( Z.C.C.C.C.C.C.C.B.B.} _ ' F.%X#X@XH.H.H.H.H.H.H.G.R.%X#X*.&.} ` ` } V.C.S.%XR.$X#X#X%X#X#X+XG.C.Z.u yXyXyXyX",
"yXyXyXyXyXyXyXyXyX^ Z.V.B.C.C.C.C.B.*.} ' j j p.V.C.P.P.H.G.F.F.D.H.#X%X&XA.} _ M _ _ _ } V.@XH.#XR.#XP.#XP.H.G.F.C.s.u yXyXyXyX",
"yXyXyXyXyXyXyXyXyX( V.B.B.V.C.B.*.*.*.| M h m _ _ ' } B.C.C.p.*.p.p.A.V.P.' j M M _ _ _ ' } V.V.#XG.%XS.G.G.D.F.F.B.| s.yXyXyXyX",
"yXyXyXyXyXyXyX).*.V.*.*.B.p.*.p.C.V.&._ h h b M _ ' } } } } ` } } [ h m h j j h h M _ ' ' ` [ V.S.A.P.D.S.F.F.F.A.V.&.[ yXyXyXyX",
"yXyXyXyXyXyX/ 7.G.F.C.V.*.*.V.A.D.*._ j j h h _ ' ' ` ` [ ' [ G.F.F.A.j j h h m } *.V.} | *.} } A.G.D.F.F.F.F.S.V.*.s.t yXyXyXyX",
"yXyXyXyXwX6.$XR.@X@XP.G.C.A.S.S.*.} M j h h _ B.&.&.&.B.} ] A.P.@XV.C.M e r e [ A.H.D.&.&.S.S.A.D.F.F.F.F.S.A.V.*.} s.^ yXyXyXyX",
"yXyXK.<.:.F.S.C.H.P.@X@X@X@XP.V.} ' _ m j r B.G.H.C.F.P.S._ V.H.P.V.p p @ & e h A.G.V.V.[ B.C.A.D.D.D.D.C.*.B.*.} *.( l.yXyXyXyX",
"yXyX5XZ.o._ } } *.F.@X#X%X%XS.&.} _ m m h p G.P.P.H.C.F.[ r M p.P.}   @ X X ; h _ ' H.H.A.} V.C.C.A.C.C.B.&.&.| &.| l.u yXyXyXyX",
"yXyX-X' B ` ] } } p.V.V.G.P.` ` ` M m M h M p.p.P.V.p M r p ; r *.: . @ @ X w p e M &.G.V.} &.*.B.B.V.V.G.B.} } s.t yXyXyXyXyXyX",
"yXyXyX# _ M ` ' } } } ' } &.M M M _ m h h p h p D.M   @ e e @ X @ X @ X @ X w h h r 0 _ ` ` [ } [ | A.H.@X#XC.} [ #  XyXyXyXyXyX",
"yXyXyX.  .j M M ` ` ` ` ` M M j B.&.h m r p j e p w X @ @ @ X @ @ @ X : @ X @ p b p p h b h M ` ' *.#X#XC.#XA._ B # !.yXyXyXyXyX",
"yXyXyX+  .j m M _ M _ M _ _ h V.F.*.A.S.M h h r   X X @ X @ X @ X . - z . @ X & h h r r r p h M M &.P.G._ *.[ j b q  .yXyXyXyXyX",
"yXyXyX8 n h m m j M M M j h _ *.} G.V.&.M r r @ & X X & & @ X - , : x a . @ @ X = e p p p r h h j j [ M M j _ h b 0 ..yXyXyXyXyX",
"yXyXyX X. B b h h j m j h h p _ A.B.r r w = X X X X X @ ; . <     A g @ $ X X @ X X = p p r p r h m h h m b h h b # ~.yXyXyXyXyX",
"yXyXyXyX7 n h h h h h h h h r m V.b = @ X @ @ X & & & - & Z   e 0Xy.~ i . & X @ X X X ; p r r p h h h h h b p p N   yXyXyXyXyXyX",
"yXyXyXyX} M b b b n b r r h r i V @ < @ @ $ ; ; 8 ; @   Z #.,XyXyX  rX8X. , @ : - : X @ r p r r r h h h h h p e V   yXyXyXyXyXyX",
"yXyXyXyX[.k B { _ 8 q b b p N     N   > i , , i z g D G v f  XyXf.  ,XyX% : A i 5 - @ . w h r e r r r r r r r r l + yXyXyXyXyXyX",
"yXyXyXyXV.{ M k 7 /...0 + q   ~.yXyXyX+         T i.A F g A 2 f s q.%.q.w.d x < . . X X @ r h r e r r e r e e V   yXyXyXyXyXyXyX",
"yXyXyXyXyX. ..l.yXyXyXyXyX[.yXyXyXyXyXyXyX}.`.yX!.%.e.C C v v x.F i.A u.@.f.%   z < > $ @ = ; e h r e e e r N   yXyXyXyXyXyXyXyX",
"yXyXyXyXyXk.yXyXyXyXyXyXyXyXyXyXyXyXyXyXyXyXyXyX2 y.Y Y R A $.r.R ! e.J |.yXyXG       $ - X . @ e h e r e r r 8 yXyXyXyXyXyXyXyX",
"yXyXyXyXyXyXyXyXyXyXyXyXyXyXyXyXyXyXyXyXyXyXyX|.2 A A Y T e.r.e.m.m.t.h.yXyXyXyXyX}.~.    < , $ > i N b r r V   yXyXyXyXyXyXyXyX",
"yXyXyXyXyXyXyXyXyXyXyXyXyXyXyXyXyXyXyXyXyXyXyX`.3 A ! R x Y $.i.v.y.J qXyXyXyXyXyXyXyXyXyX    @       0 r b q !.yXyXyXyXyXyXyXyX",
"yXyXyXyXyXyXyXyXyXyXyXyXyXyXyXyXyXyXyXyXyXyXyXyXf v i.T z 0.0.y.m.d.i.yXyXyXyXyXyXyXyXyXyXyX/.@ g.yXyXX.G q . yXyXyXyXyXyXyXyXyX",
"yXyXyXyXyXyXyXyXyXyXyXyXyXyXyXyXyXyXyXyXyXyXyXyX4 ! m.Y x e.0.d.0.6 yXyXyXyXyXyXyXyXyXyXyXyXyXyXyXyXyXyXyXyX~.yXyXyXyXyXyXyXyXyX",
"yXyXyXyXyXyXyXyXyXyXyXyXyXyXyXyXyXyXyXyXyXyXyXoX2 n.v.C c 0.! %.t.yXyXyXyXyXyXyXyXyXyXyXyXyXyXyXyXyXyXyXyXyXyXyXyXyXyXyXyXyXyXyX",
"yXyXyXyXyXyXyXyXyXyXyXyXyXyXyXyXyXyXyXyXyXyXyX X+.y.M.C x Q R w.yXyXyXyXyXyXyXyXyXyXyXyXyXyXyXyXyXyXyXyXyXyXyXyXyXyXyXyXyXyXyXyX",
"yXyXyXyXyXyXyXyXyXyXyXyXyXyXyXyXyXyXyXyXyXyXyXJ 0.Y c.! x Z W yXyXyXyXyXyXyXyXyXyXyXyXyXyXyXyXyXyXyXyXyXyXyXyXyXyXyXyXyXyXyXyXyX",
"yXyXyXyXyXyXyXyXyXyXyXyXyXyXyXyXyXyXyXyXyXyX@.i.! Y r.e.~ 3 yXyXyXyXyXyXyXyXyXyXyXyXyXyXyXyXyXyXyXyXyXyXyXyXyXyXyXyXyXyXyXyXyXyX",
"yXyXyXyXyXyXyXyXyXyXyXyXyXyXyXyXyXyXyXyXyX.X;.u.b.R e.r.0.I yXyXyXyXyXyXyXyXyXyXyXyXyXyXyXyXyXyXyXyXyXyXyXyXyXyXyXyXyXyXyXyXyXyX",
"yXyXyXyXyXyXyXyXyXyXyXyXyXyXyXyXyXyXyXyXyX@.M.r.c.e.! i.L ^.yXyXyXyXyXyXyXyXyXyXyXyXyXyXyXyXyXyXyXyXyXyXyXyXyXyXyXyXyXyXyXyXyXyX",
"yXyXyXyXyXyXyXyXyXyXyXyXyXyXyXyXyXyXyXyXyXH i.! d.! ! 0.P ^.yXyXyXyXyXyXyXyXyXyXyXyXyXyXyXyXyXyXyXyXyXyXyXyXyXyXyXyXyXyXyXyXyXyX",
"yXyXyXyXyXyXyXyXyXyXyXyXyXyXyXyXyXyXyXyX9XK Q i.r.A e.Y u.1 yXyXyXyXyXyXyXyXyXyXyXyXyXyXyXyXyXyXyXyXyXyXyXyXyXyXyXyXyXyXyXyXyXyX",
"yXyXyXyXyXyXyXyXyXyXyXyXyXyXyXyXyXyXyXyXyX+.n.c.c e.! R n.2 yXyXyXyXyXyXyXyXyXyXyXyXyXyXyXyXyXyXyXyXyXyXyXyXyXyXyXyXyXyXyXyXyXyX",
"yXyXyXyXyXyXyXyXyXyXyXyXyXyXyXyXyXyXyXyX].P d.Y e.r.A r.i.Y 4 yXyXyXyXyXyXyXyXyXyXyXyXyXyXyXyXyXyXyXyXyXyXyXyXyXyXyXyXyXyXyXyXyX",
"yXyXyXyXyXyXyXyXyXyXyXyXyXyXyXyXyXyXyX6X%.e.R r.r.x r.i.e.y.P `.yXyXyXyXyXyXyXyXyXyXyXyXyXyXyXyXyXyXyXyXyXyXyXyXyXyXyXyXyXyXyXyX",
"yXyXyXyXyXyXyXyXyXyXyXyXyXyXyXyXyXyXyXU x.r.0.T c r.n.! t.! v f ].{.1XXXyXyXyXyXyXyXyXyXyXyXyXyXyXyXyXyXyXyXyXyXyXyXyXyXyXyXyXyX",
"yXyXyXyXyXyXyXyXyXyXyXyXyXyXyXyXyXyXyXO T i.T r.i.n.i.r.! g e.b.%.I.-.@.%.XXyXyXyXyXyXyXyXyXyXyXyXyXyXyXyXyXyXyXyXyXyXyXyXyXyXyX",
"yXyXyXyXyXyXyXyXyXyXyXyXyXyXyXyXyXyXyXyXe.t.i.0.c x c Y Y c R c.c.r.u.M.T.U yXyXyXyXyXyXyXyXyXyXyXyXyXyXyXyXyXyXyXyXyXyXyXyXyXyX",
"yXyXyXyXyXyXyXyXyXyXyXyXyXyXyXyXyXyXyXyXc.i.r.A A ! e.! Y x r.! ! e.c.y.u.+.yXyXyXyXyXyXyXyXyXyXyXyXyXyXyXyXyXyXyXyXyXyXyXyXyXyX",
"yXyXyXyXyXyXyXyXyXyXyXyXyXyXyXyXXX=.P =.m.v.0.o ! u.! e.d.R C d.b.N.0.S ! e.M.yXyXyXyXyXyXyXyXyXyXyXyXyXyXyXyXyXyXyXyXyXyXyXyXyX",
"yXyXyXyXyXyXyXyXyXyXyXyXyXyX1 N.;.m.N.u.d.d.d }.g   J n.I.I.e.x T 6 E j.a c $.I.yXyXyXyXyXyXyXyXyXyXyXyXyXyXyXyXyXyXyXyXyXyXyXyX",
"yXyXyXyXyXyXyXyXyXyXyXyXyXyXz.! m.O.H q.w.  yXyXyXyX/.2 P x.Y.d.* 4XyXyXyX~ i.r.d.yXyXyXyXyXyXyXyXyXyXyXyXyXyXyXyXyXyXyXyXyXyXyX",
"yXyXyXyXyXyXyXyXyXyX|.!.z.6 P s o '.`.O   f.yXyXyXyXyXyX!.Q.Y.Y.H yXyXyXyXyXf 6 6 O s z.s yXyXyXyXyXyXyXyXyXyXyXyXyXyXyXyXyXyXyX",
"yXyXyXyXyXyXyXyXyXyXyXyXyX X!.yXyXyXyXyXyXyXyXyXyXW d.3XXXi.n.m.H yXyXyXyXyXyXyXyXyXyXyXyX].yXyXyXyXyXyXyXyXyXyXyXyXyXyXyXyXyXyX",
"yXyXyXyXyXyXyXyXyXyXyXyXyXyXyXyXyXyXyXyXyXyXyXyX6 $.h.1   O 1 s   yXyXyXyXyXyXyXyXyXyXyXyXyXN.yXyXyXyXyXyXyXyXyXyXyXyXyXyXyXyXyX",
"yXyXyXyXyXyXyXyXyXyXyXyXyXyXyXyXyXyXyXyXyXyXyXyX3XyXyXyXyXyX4X XyXyXyXyXyXyXyXyXyXyXyXyXyXyXyXyXyXyXyXyXyXyXyXyXyXyXyXyXyXyXyXyX",
"yXyXyXyXyXyXyXyXyXyXyXyXyXyXyXyXyXyXyXyXyXyXyXyXyXyXyXyXyXyXyXyXyXyXyXyXyXyXyXyXyXyXyXyXyXyXyXyXyXyXyXyXyXyXyXyXyXyXyXyXyXyXyXyX"
};
